<svg width="443" height="345" viewBox="0 0 443 345" fill="none" xmlns="http://www.w3.org/2000/svg">
<path d="M316.856 95.9237C316.855 96.9458 316.909 97.9672 317.016 98.9837C316.437 118.154 310.098 136.706 298.826 152.224C294.5 158.183 289.508 163.628 283.946 168.454C266.498 183.554 244.195 191.866 221.121 191.866C198.046 191.866 175.743 183.554 158.296 168.454C163.875 163.631 168.885 158.186 173.226 152.224C183.641 161.098 196.314 166.908 209.836 169.007C223.357 171.106 237.195 169.411 249.81 164.111C262.425 158.811 273.322 150.114 281.287 138.988C289.253 127.862 293.974 114.744 294.926 101.094V101.094C295.039 99.4004 295.099 97.687 295.106 95.9537C295.112 94.2204 295.052 92.5071 294.926 90.8137C294.103 78.7871 290.332 67.148 283.946 56.9237C277.301 46.2484 268.046 37.4422 257.054 31.3364C246.062 25.2305 233.695 22.0264 221.121 22.0264C208.546 22.0264 196.18 25.2305 185.187 31.3364C174.195 37.4422 164.94 46.2484 158.296 56.9237C151.93 67.1438 148.174 78.7713 147.356 90.7837V90.7837C147.236 92.4737 147.176 94.1937 147.176 95.9137C147.176 97.6337 147.236 99.3537 147.356 101.044C146.418 110.472 142.929 119.467 137.263 127.062C131.597 134.657 123.969 140.564 115.198 144.149C106.427 147.733 96.8449 148.86 87.4816 147.408C78.1183 145.956 69.3276 141.98 62.0543 135.907C54.781 129.835 49.3 121.895 46.2004 112.941C43.1007 103.987 42.4996 94.3576 44.4616 85.0877C46.4236 75.8179 50.8745 67.2578 57.3361 60.3276C63.7977 53.3974 72.0256 48.3589 81.1356 45.7537C82.8117 45.2809 84.5746 45.2029 86.2859 45.5259C87.9971 45.8489 89.6103 46.564 90.9987 47.6153C92.3871 48.6665 93.513 50.0252 94.2881 51.5847C95.0631 53.1443 95.4661 54.8622 95.4656 56.6037V56.7237C95.4628 59.1902 94.6572 61.5889 93.1706 63.5571C91.6841 65.5253 89.5973 66.9563 87.2256 67.6337C80.5643 69.5793 74.8026 73.8117 70.954 79.5864C67.1054 85.361 65.4165 92.3079 66.1845 99.2049C66.9526 106.102 70.1284 112.507 75.1531 117.294C80.1778 122.08 86.7295 124.941 93.6556 125.374C101.287 125.828 108.804 123.352 114.672 118.451C120.539 113.55 124.314 106.594 125.226 99.0037C125.442 96.9661 125.442 94.9113 125.226 92.8737C125.809 73.7099 132.147 55.1653 143.416 39.6537C147.741 33.6944 152.733 28.249 158.296 23.4237C175.743 8.32294 198.046 0.0117188 221.121 0.0117188C244.195 0.0117188 266.498 8.32294 283.946 23.4237C295.21 33.1854 304.052 45.4306 309.776 59.1937C314.216 69.9044 316.67 81.3341 317.016 92.9237C316.911 93.9203 316.857 94.9216 316.856 95.9237Z" fill="#F74700"/>
<path d="M273.435 90.7935C272.158 77.92 266.14 65.9814 256.551 57.2973C246.962 48.6132 234.487 43.8039 221.55 43.8039C208.614 43.8039 196.139 48.6132 186.55 57.2973C176.961 65.9814 170.943 77.92 169.665 90.7935C169.779 92.4868 169.839 94.2002 169.845 95.9335C169.852 97.6668 169.792 99.3802 169.665 101.073C168.848 113.083 165.091 124.707 158.725 134.923C152.146 145.522 142.993 154.283 132.117 160.393C121.241 166.502 108.996 169.76 96.5225 169.864C84.0487 169.968 71.7512 166.915 60.7749 160.988C49.7985 155.061 40.5 146.454 33.7449 135.967C26.9898 125.48 22.9977 113.454 22.1402 101.01C21.2826 88.5648 23.5876 76.1054 28.8405 64.791C34.0933 53.4766 42.1233 43.6751 52.1831 36.2988C62.2428 28.9225 74.0053 24.2112 86.3755 22.6035C89.0123 22.2455 91.43 20.9437 93.1804 18.9395C94.9309 16.9353 95.8955 14.3645 95.8955 11.7035V11.7035C95.8966 10.1409 95.5649 8.59599 94.9223 7.17164C94.2797 5.7473 93.341 4.47621 92.1687 3.44302C90.9964 2.40983 89.6175 1.63825 88.1237 1.17967C86.6299 0.72109 85.0556 0.586035 83.5055 0.783491C66.8088 2.96281 50.98 9.499 37.6101 19.735C24.2403 29.9711 13.8006 43.5463 7.34038 59.0961C0.880185 74.6458 -1.37285 91.6222 0.807783 108.319C2.98841 125.015 9.52586 140.844 19.763 154.213C30 167.582 43.576 178.02 59.1263 184.479C74.6766 190.938 91.6531 193.19 108.35 191.008C125.046 188.826 140.874 182.287 154.242 172.049C167.61 161.811 178.048 148.234 184.506 132.684C191.474 139.7 200.295 144.59 209.938 146.783C219.581 148.976 229.648 148.381 238.966 145.068C248.284 141.756 256.468 135.861 262.562 128.073C268.656 120.285 272.41 110.924 273.385 101.083C273.279 99.3835 273.225 97.6635 273.225 95.9235C273.225 94.1835 273.295 92.4735 273.435 90.7935ZM222.515 125.404C216.602 125.599 210.767 124.011 205.768 120.846C200.769 117.682 196.838 113.087 194.485 107.658C192.132 102.23 191.466 96.2193 192.574 90.4076C193.682 84.5959 196.512 79.2517 200.697 75.0697C204.882 70.8876 210.228 68.0611 216.041 66.9573C221.853 65.8536 227.863 66.5236 233.29 68.8805C238.717 71.2374 243.309 75.172 246.47 80.1731C249.631 85.1742 251.215 91.0105 251.015 96.9235C250.766 104.404 247.681 111.509 242.387 116.799C237.093 122.089 229.986 125.169 222.506 125.413L222.515 125.404Z" fill="#F74700"/>
<path d="M398.905 95.1738C399.073 106.621 395.47 117.806 388.651 127.003C381.833 136.2 372.178 142.898 361.175 146.064C359.491 146.54 357.718 146.619 355.997 146.295C354.277 145.97 352.655 145.251 351.259 144.194C349.864 143.136 348.732 141.77 347.954 140.201C347.176 138.632 346.773 136.905 346.775 135.154V135.154C346.788 132.683 347.603 130.282 349.098 128.314C350.594 126.347 352.688 124.918 355.065 124.244C361.866 122.261 367.725 117.896 371.571 111.948C375.418 106 376.995 98.8658 376.015 91.8505C375.034 84.8352 371.561 78.4073 366.231 73.7421C360.9 69.077 354.069 66.4863 346.985 66.4438C345.162 66.4307 343.341 66.5847 341.545 66.9039L340.865 67.0338C334.661 68.2676 329.008 71.4394 324.721 76.0923C320.435 80.7452 317.737 86.6389 317.015 92.9238C316.663 81.3512 314.21 69.9389 309.775 59.2439C317.008 51.9608 326.23 46.9747 336.285 44.9105C346.34 42.8462 356.78 43.7957 366.298 47.6398C375.815 51.484 383.986 58.0518 389.787 66.5201C395.587 74.9884 398.759 84.9804 398.905 95.2439V95.1738Z" fill="#F74700"/>
<path d="M442.715 95.9239C442.706 119.221 434.224 141.721 418.852 159.227C403.48 176.733 382.266 188.052 359.165 191.074C357.615 191.271 356.041 191.136 354.547 190.678C353.053 190.219 351.674 189.448 350.502 188.414C349.33 187.381 348.391 186.11 347.749 184.686C347.106 183.261 346.774 181.716 346.775 180.154V180.154C346.775 177.493 347.74 174.922 349.49 172.918C351.241 170.914 353.659 169.612 356.295 169.254C367.708 167.774 378.617 163.651 388.155 157.213C397.694 150.774 405.597 142.198 411.238 132.168C416.878 122.137 420.099 110.928 420.644 99.4329C421.19 87.9379 419.045 76.4744 414.38 65.9544C409.715 55.4345 402.659 46.1487 393.773 38.8359C384.888 31.5232 374.418 26.3854 363.197 23.8315C351.976 21.2776 340.314 21.3781 329.139 24.1249C317.963 26.8717 307.584 32.1891 298.825 39.6539C294.5 33.6945 289.508 28.2492 283.945 23.4239C297.846 11.3835 314.914 3.5915 333.117 0.975663C351.321 -1.64017 369.892 1.03033 386.621 8.66924C403.35 16.3081 417.531 28.5936 427.475 44.0629C437.42 59.5322 442.71 77.5336 442.715 95.9239V95.9239Z" fill="#F74700"/>
<path d="M133.025 316.574C133.042 320.188 132.321 323.768 130.905 327.094C129.554 330.32 127.611 333.264 125.175 335.774C122.722 338.27 119.813 340.273 116.605 341.674C113.294 343.142 109.708 343.892 106.085 343.874H66.7255C65.5461 343.891 64.3757 343.667 63.2856 343.217C62.1956 342.766 61.2088 342.098 60.3854 341.254C59.55 340.432 58.8865 339.452 58.4337 338.372C57.9808 337.291 57.7476 336.131 57.7476 334.959C57.7476 333.787 57.9808 332.627 58.4337 331.546C58.8865 330.465 59.55 329.486 60.3854 328.664C61.2088 327.819 62.1956 327.151 63.2856 326.701C64.3757 326.25 65.5461 326.027 66.7255 326.044H105.795C107.034 326.058 108.262 325.817 109.403 325.335C110.543 324.854 111.572 324.142 112.425 323.244C113.319 322.378 114.026 321.339 114.504 320.19C114.982 319.042 115.221 317.808 115.205 316.564C115.23 315.298 114.996 314.04 114.518 312.868C114.04 311.695 113.328 310.632 112.425 309.744C111.572 308.846 110.543 308.134 109.403 307.652C108.262 307.17 107.034 306.929 105.795 306.944H87.2255C83.5533 306.969 79.915 306.241 76.5355 304.804C69.9748 302.044 64.7556 296.825 61.9955 290.264C60.5836 286.875 59.8567 283.24 59.8567 279.569C59.8567 275.898 60.5836 272.263 61.9955 268.874C63.3691 265.625 65.3552 262.672 67.8455 260.174C70.3359 257.689 73.261 255.683 76.4755 254.254C79.8172 252.768 83.4383 252.014 87.0955 252.044H105.225C106.405 252.027 107.575 252.251 108.665 252.702C109.755 253.152 110.742 253.82 111.565 254.664C112.402 255.485 113.067 256.464 113.52 257.545C113.974 258.626 114.208 259.787 114.208 260.959C114.208 262.131 113.974 263.291 113.52 264.372C113.067 265.453 112.402 266.433 111.565 267.254C110.745 268.105 109.759 268.781 108.67 269.24C107.58 269.699 106.408 269.931 105.225 269.924H87.0055C84.5159 269.987 82.1516 271.029 80.4255 272.824C78.684 274.646 77.7121 277.069 77.7121 279.589C77.7121 282.109 78.684 284.532 80.4255 286.354C81.2813 287.268 82.3203 287.992 83.4748 288.478C84.6293 288.964 85.8732 289.201 87.1255 289.174H105.665C109.345 289.151 112.987 289.904 116.355 291.384C119.596 292.795 122.546 294.795 125.055 297.284C127.544 299.771 129.531 302.715 130.905 305.954C132.329 309.312 133.051 312.926 133.025 316.574V316.574Z" fill="#F74700"/>
<path d="M179.796 252.923C190.054 251.237 200.581 253.075 209.661 258.138C218.741 263.201 225.838 271.19 229.796 280.804C233.89 290.946 234.245 302.214 230.796 312.593C229.25 317.16 227.014 321.464 224.166 325.353C219.591 331.56 213.505 336.493 206.486 339.684C199.539 342.942 191.884 344.4 184.226 343.924C180.238 343.641 176.307 342.827 172.536 341.504C165.033 338.887 158.315 334.415 153.006 328.504C150.334 325.544 148.08 322.233 146.306 318.663C144.6 315.165 143.331 311.471 142.526 307.663C141.718 303.894 141.405 300.034 141.596 296.184C141.786 292.318 142.43 288.488 143.516 284.774C144.606 281.028 146.215 277.453 148.296 274.154C149.001 272.854 149.81 271.613 150.716 270.443H150.856C154.298 265.769 158.661 261.848 163.676 258.923C168.656 255.995 174.113 253.965 179.796 252.923V252.923ZM210.596 314.093C214.59 308.241 216.268 301.113 215.306 294.094C214.824 290.84 213.76 287.7 212.166 284.823C210.286 281.429 207.77 278.427 204.756 275.983C201.754 273.535 198.246 271.783 194.486 270.853C190.776 269.809 186.886 269.567 183.076 270.143C179.221 270.7 175.527 272.063 172.236 274.143C167.988 276.861 164.537 280.656 162.236 285.144C159.878 289.612 158.792 294.641 159.096 299.684C159.258 303.567 160.283 307.365 162.096 310.804C162.569 311.657 163.019 312.537 163.446 313.444C163.88 314.359 164.382 315.241 164.946 316.083C164.092 314.657 163.286 313.183 162.526 311.663C164.049 314.422 166.026 316.903 168.376 319.004C170.756 321.142 173.455 322.897 176.376 324.204C179.393 325.529 182.632 326.279 185.926 326.413C189.214 326.564 192.503 326.107 195.626 325.064C198.65 324.121 201.494 322.674 204.036 320.783C206.566 318.914 208.777 316.648 210.586 314.074L210.596 314.093Z" fill="#F74700"/>
<path d="M310.396 316.574C310.397 320.192 309.658 323.772 308.226 327.094C306.874 330.32 304.931 333.264 302.496 335.774C300.042 338.27 297.133 340.273 293.926 341.674C290.614 343.142 287.028 343.892 283.406 343.874H244.096C242.916 343.891 241.746 343.667 240.656 343.217C239.566 342.766 238.579 342.098 237.756 341.254C236.92 340.432 236.257 339.452 235.804 338.372C235.351 337.291 235.118 336.131 235.118 334.959C235.118 333.787 235.351 332.627 235.804 331.546C236.257 330.465 236.92 329.486 237.756 328.664C238.579 327.819 239.566 327.151 240.656 326.701C241.746 326.25 242.916 326.027 244.096 326.044H283.166C284.404 326.058 285.632 325.817 286.773 325.335C287.913 324.854 288.943 324.142 289.796 323.244C290.689 322.378 291.396 321.339 291.874 320.19C292.352 319.042 292.591 317.808 292.576 316.564C292.6 315.298 292.366 314.04 291.888 312.868C291.41 311.695 290.698 310.632 289.796 309.744C288.943 308.846 287.913 308.134 286.773 307.652C285.632 307.17 284.404 306.929 283.166 306.944H264.626C260.953 306.969 257.315 306.241 253.936 304.804C247.375 302.044 242.156 296.825 239.396 290.264C237.984 286.875 237.257 283.24 237.257 279.569C237.257 275.898 237.984 272.263 239.396 268.874C240.769 265.625 242.755 262.672 245.246 260.174C247.736 257.689 250.661 255.683 253.876 254.254C257.217 252.768 260.838 252.014 264.496 252.044H282.606C283.785 252.027 284.955 252.251 286.045 252.702C287.135 253.152 288.122 253.82 288.946 254.664C289.782 255.485 290.447 256.464 290.9 257.545C291.354 258.626 291.588 259.787 291.588 260.959C291.588 262.131 291.354 263.291 290.9 264.372C290.447 265.453 289.782 266.433 288.946 267.254C288.117 268.1 287.125 268.768 286.03 269.219C284.935 269.669 283.76 269.892 282.576 269.874H264.376C261.886 269.937 259.522 270.979 257.796 272.774C256.054 274.596 255.082 277.019 255.082 279.539C255.082 282.059 256.054 284.482 257.796 286.304C258.651 287.218 259.69 287.942 260.845 288.428C261.999 288.914 263.243 289.151 264.496 289.124H283.036C286.715 289.101 290.357 289.854 293.726 291.334C296.966 292.745 299.916 294.745 302.426 297.234C304.899 299.731 306.868 302.682 308.226 305.924C309.671 309.288 310.409 312.913 310.396 316.574V316.574Z" fill="#F74700"/>
<path d="M385.676 328.834C386.507 329.665 387.162 330.654 387.604 331.743C388.045 332.832 388.263 333.999 388.246 335.174C388.256 336.338 388.035 337.492 387.595 338.569C387.154 339.647 386.503 340.625 385.68 341.448C384.857 342.271 383.879 342.922 382.801 343.363C381.724 343.803 380.57 344.025 379.406 344.014H368.846C362.74 344.047 356.695 342.807 351.096 340.374C345.66 338.035 340.711 334.698 336.506 330.534C332.313 326.357 328.95 321.424 326.596 315.994C324.178 310.364 322.931 304.301 322.931 298.174C322.931 292.047 324.178 285.984 326.596 280.354C328.95 274.924 332.313 269.99 336.506 265.814C340.706 261.632 345.656 258.277 351.096 255.924C356.695 253.491 362.74 252.251 368.846 252.284H379.396C380.56 252.273 381.714 252.495 382.791 252.935C383.869 253.375 384.847 254.026 385.67 254.849C386.493 255.672 387.144 256.651 387.585 257.728C388.025 258.806 388.246 259.96 388.236 261.124C388.254 262.299 388.036 263.466 387.594 264.555C387.153 265.644 386.497 266.633 385.666 267.464C384.862 268.316 383.889 268.992 382.81 269.446C381.73 269.901 380.567 270.125 379.396 270.104H368.846C365.095 270.075 361.379 270.827 357.936 272.314C354.623 273.751 351.603 275.785 349.026 278.314C346.442 280.858 344.383 283.886 342.966 287.224C341.491 290.647 340.739 294.337 340.756 298.064C340.739 301.763 341.463 305.428 342.883 308.844C344.303 312.259 346.392 315.357 349.026 317.954C351.602 320.485 354.622 322.519 357.936 323.954C361.379 325.443 365.095 326.195 368.846 326.164H379.396C380.571 326.146 381.737 326.374 382.818 326.834C383.9 327.294 384.873 327.975 385.676 328.834V328.834Z" fill="#F74700"/>
</svg>
