<svg width="443" height="192" viewBox="0 0 443 192" fill="none" xmlns="http://www.w3.org/2000/svg">
<path d="M316.856 95.9237C316.855 96.9458 316.909 97.9672 317.016 98.9837C316.437 118.154 310.098 136.706 298.826 152.224C294.5 158.183 289.508 163.628 283.946 168.454C266.498 183.554 244.195 191.866 221.121 191.866C198.046 191.866 175.743 183.554 158.296 168.454C163.875 163.631 168.885 158.186 173.226 152.224C183.641 161.098 196.314 166.908 209.836 169.007C223.357 171.106 237.195 169.411 249.81 164.111C262.425 158.811 273.322 150.114 281.287 138.988C289.253 127.862 293.974 114.744 294.926 101.094V101.094C295.039 99.4004 295.099 97.687 295.106 95.9537C295.112 94.2204 295.052 92.5071 294.926 90.8137C294.103 78.7871 290.332 67.148 283.946 56.9237C277.301 46.2484 268.046 37.4422 257.054 31.3364C246.062 25.2305 233.695 22.0264 221.121 22.0264C208.546 22.0264 196.18 25.2305 185.187 31.3364C174.195 37.4422 164.94 46.2484 158.296 56.9237C151.93 67.1438 148.174 78.7713 147.356 90.7837V90.7837C147.236 92.4737 147.176 94.1937 147.176 95.9137C147.176 97.6337 147.236 99.3537 147.356 101.044C146.418 110.472 142.929 119.467 137.263 127.062C131.597 134.657 123.969 140.564 115.198 144.149C106.427 147.733 96.8449 148.86 87.4816 147.408C78.1183 145.956 69.3276 141.98 62.0543 135.907C54.781 129.835 49.3 121.895 46.2004 112.941C43.1007 103.987 42.4996 94.3576 44.4616 85.0877C46.4236 75.8179 50.8745 67.2578 57.3361 60.3276C63.7977 53.3974 72.0256 48.3589 81.1356 45.7537C82.8117 45.2809 84.5746 45.2029 86.2859 45.5259C87.9971 45.8489 89.6103 46.564 90.9987 47.6153C92.3871 48.6665 93.513 50.0252 94.2881 51.5847C95.0631 53.1443 95.4661 54.8622 95.4656 56.6037V56.7237C95.4628 59.1902 94.6572 61.5889 93.1706 63.5571C91.6841 65.5253 89.5973 66.9563 87.2256 67.6337C80.5643 69.5793 74.8026 73.8117 70.954 79.5864C67.1054 85.361 65.4165 92.3079 66.1845 99.2049C66.9526 106.102 70.1284 112.507 75.1531 117.294C80.1778 122.08 86.7295 124.941 93.6556 125.374C101.287 125.828 108.804 123.352 114.672 118.451C120.539 113.55 124.314 106.594 125.226 99.0037C125.442 96.9661 125.442 94.9113 125.226 92.8737C125.809 73.7099 132.147 55.1653 143.416 39.6537C147.741 33.6944 152.733 28.249 158.296 23.4237C175.743 8.32294 198.046 0.0117188 221.121 0.0117188C244.195 0.0117188 266.498 8.32294 283.946 23.4237C295.21 33.1854 304.052 45.4306 309.776 59.1937C314.216 69.9044 316.67 81.3341 317.016 92.9237C316.911 93.9203 316.857 94.9216 316.856 95.9237Z" fill="#F74700"/>
<path d="M273.435 90.7935C272.158 77.92 266.14 65.9814 256.551 57.2973C246.962 48.6132 234.487 43.8039 221.55 43.8039C208.614 43.8039 196.139 48.6132 186.55 57.2973C176.961 65.9814 170.943 77.92 169.665 90.7935C169.779 92.4868 169.839 94.2002 169.845 95.9335C169.852 97.6668 169.792 99.3802 169.665 101.073C168.848 113.083 165.091 124.707 158.725 134.923C152.146 145.522 142.993 154.283 132.117 160.393C121.241 166.502 108.996 169.76 96.5225 169.864C84.0487 169.968 71.7512 166.915 60.7749 160.988C49.7985 155.061 40.5 146.454 33.7449 135.967C26.9898 125.48 22.9977 113.454 22.1402 101.01C21.2826 88.5648 23.5876 76.1054 28.8405 64.791C34.0933 53.4766 42.1233 43.6751 52.1831 36.2988C62.2428 28.9225 74.0053 24.2112 86.3755 22.6035C89.0123 22.2455 91.43 20.9437 93.1804 18.9395C94.9309 16.9353 95.8955 14.3645 95.8955 11.7035V11.7035C95.8966 10.1409 95.5649 8.59599 94.9223 7.17164C94.2797 5.7473 93.341 4.47621 92.1687 3.44302C90.9964 2.40983 89.6175 1.63825 88.1237 1.17967C86.6299 0.72109 85.0556 0.586035 83.5055 0.783491C66.8088 2.96281 50.98 9.499 37.6101 19.735C24.2403 29.9711 13.8006 43.5463 7.34038 59.0961C0.880185 74.6458 -1.37285 91.6222 0.807783 108.319C2.98841 125.015 9.52586 140.844 19.763 154.213C30 167.582 43.576 178.02 59.1263 184.479C74.6766 190.938 91.6531 193.19 108.35 191.008C125.046 188.826 140.874 182.287 154.242 172.049C167.61 161.811 178.048 148.234 184.506 132.684C191.474 139.7 200.295 144.59 209.938 146.783C219.581 148.976 229.648 148.381 238.966 145.068C248.284 141.756 256.468 135.861 262.562 128.073C268.656 120.285 272.41 110.924 273.385 101.083C273.279 99.3835 273.225 97.6635 273.225 95.9235C273.225 94.1835 273.295 92.4735 273.435 90.7935ZM222.515 125.404C216.602 125.599 210.767 124.011 205.768 120.846C200.769 117.682 196.838 113.087 194.485 107.658C192.132 102.23 191.466 96.2193 192.574 90.4076C193.682 84.5959 196.512 79.2517 200.697 75.0697C204.882 70.8876 210.228 68.0611 216.041 66.9573C221.853 65.8536 227.863 66.5236 233.29 68.8805C238.717 71.2374 243.309 75.172 246.47 80.1731C249.631 85.1742 251.215 91.0105 251.015 96.9235C250.766 104.404 247.681 111.509 242.387 116.799C237.093 122.089 229.986 125.169 222.506 125.413L222.515 125.404Z" fill="#F74700"/>
<path d="M398.905 95.1738C399.073 106.621 395.47 117.806 388.651 127.003C381.833 136.2 372.178 142.898 361.175 146.064C359.491 146.54 357.718 146.619 355.997 146.295C354.277 145.97 352.655 145.251 351.259 144.194C349.864 143.136 348.732 141.77 347.954 140.201C347.176 138.632 346.773 136.905 346.775 135.154V135.154C346.788 132.683 347.603 130.282 349.098 128.314C350.594 126.347 352.688 124.918 355.065 124.244C361.866 122.261 367.725 117.896 371.571 111.948C375.418 106 376.995 98.8658 376.015 91.8505C375.034 84.8352 371.561 78.4073 366.231 73.7421C360.9 69.077 354.069 66.4863 346.985 66.4438C345.162 66.4307 343.341 66.5847 341.545 66.9039L340.865 67.0338C334.661 68.2676 329.008 71.4394 324.721 76.0923C320.435 80.7452 317.737 86.6389 317.015 92.9238C316.663 81.3512 314.21 69.9389 309.775 59.2439C317.008 51.9608 326.23 46.9747 336.285 44.9105C346.34 42.8462 356.78 43.7957 366.298 47.6398C375.815 51.484 383.986 58.0518 389.787 66.5201C395.587 74.9884 398.759 84.9804 398.905 95.2439V95.1738Z" fill="#F74700"/>
<path d="M442.715 95.9239C442.706 119.221 434.224 141.721 418.852 159.227C403.48 176.733 382.266 188.052 359.165 191.074C357.615 191.271 356.041 191.136 354.547 190.678C353.053 190.219 351.674 189.448 350.502 188.414C349.33 187.381 348.391 186.11 347.749 184.686C347.106 183.261 346.774 181.716 346.775 180.154V180.154C346.775 177.493 347.74 174.922 349.49 172.918C351.241 170.914 353.659 169.612 356.295 169.254C367.708 167.774 378.617 163.651 388.155 157.213C397.694 150.774 405.597 142.198 411.238 132.168C416.878 122.137 420.099 110.928 420.644 99.4329C421.19 87.9379 419.045 76.4744 414.38 65.9544C409.715 55.4345 402.659 46.1487 393.773 38.8359C384.888 31.5232 374.418 26.3854 363.197 23.8315C351.976 21.2776 340.314 21.3781 329.139 24.1249C317.963 26.8717 307.584 32.1891 298.825 39.6539C294.5 33.6945 289.508 28.2492 283.945 23.4239C297.846 11.3835 314.914 3.5915 333.117 0.975663C351.321 -1.64017 369.892 1.03033 386.621 8.66924C403.35 16.3081 417.531 28.5936 427.475 44.0629C437.42 59.5322 442.71 77.5336 442.715 95.9239V95.9239Z" fill="#F74700"/>
</svg>
